<svg xmlns="http://www.w3.org/2000/svg" width="60.748" height="14.306" viewBox="0 0 60.748 14.306"><path d="M789,514.418h-.9q-.471.854-1.007,1.972t-1.063,2.322q-.526,1.2-1.023,2.373t-.873,2.108q-.377-.938-.873-2.108t-1.023-2.373q-.528-1.2-1.062-2.322t-1.007-1.972h-.942q-.267,2.7-.447,5.651t-.323,6.18h1.052q.094-2.749.212-5.25t.322-4.635q.126.239.395.819t.615,1.349q.347.768.726,1.648t.741,1.707q.363.828.655,1.528t.449,1.127h.958q.158-.426.448-1.127t.652-1.528q.361-.828.738-1.707t.722-1.648q.346-.768.613-1.349t.392-.819q.2,2.134.322,4.635.083,1.746.153,3.614a2.572,2.572,0,0,1,1-1.316c-.057-1.1-.116-2.181-.18-3.229q-.181-2.953-.447-5.651" transform="translate(-778.461 -513.001)" fill="#334148"/><path d="M919.15,507.568a1.368,1.368,0,0,0-.982.4,1.664,1.664,0,0,0,0,2.2,1.4,1.4,0,0,0,1.963,0,1.664,1.664,0,0,0,0-2.2,1.368,1.368,0,0,0-.981-.4" transform="translate(-894.447 -507.397)" fill="#334148" fill-rule="evenodd"/><rect width="2.34" height="8.98" transform="translate(23.541 4.268)" fill="#334148"/><path d="M946.878,511.989a3.09,3.09,0,0,0-1.131-.948,3.472,3.472,0,0,0-1.555-.333,3.87,3.87,0,0,0-.91.1,4.151,4.151,0,0,0-.817.29v-4.473l-2.34.41v12.548q.314.1.722.2t.856.162q.448.069.911.111t.887.043a4.709,4.709,0,0,0,1.822-.333,3.669,3.669,0,0,0,1.35-.948,4.192,4.192,0,0,0,.84-1.485,6.115,6.115,0,0,0,.29-1.946,7.263,7.263,0,0,0-.236-1.921,4.4,4.4,0,0,0-.691-1.476m-1.948,5.224a1.632,1.632,0,0,1-1.445.717c-.21,0-.4-.009-.581-.026s-.325-.036-.44-.059v-4.627a1.949,1.949,0,0,1,.574-.256,2.55,2.55,0,0,1,.714-.1q1.666,0,1.665,2.458a3.316,3.316,0,0,1-.487,1.9" transform="translate(-913.076 -506.628)" fill="#334148" fill-rule="evenodd"/><path d="M993.733,528.781A3.707,3.707,0,0,0,991,529.993a4.542,4.542,0,0,0-.888,1.494,5.916,5.916,0,0,0-.338,2.092,6.342,6.342,0,0,0,.259,1.844,3.988,3.988,0,0,0,.8,1.477,3.779,3.779,0,0,0,1.367.981,4.833,4.833,0,0,0,1.939.359,7.631,7.631,0,0,0,.879-.051q.44-.051.825-.128a6.166,6.166,0,0,0,.7-.179,3.132,3.132,0,0,0,.5-.2l-.314-2.066a4.457,4.457,0,0,1-1.013.316,6.23,6.23,0,0,1-1.264.128,2.555,2.555,0,0,1-1.6-.461,1.722,1.722,0,0,1-.675-1.246h5.309c.01-.137.02-.293.031-.47s.015-.338.015-.486a5.094,5.094,0,0,0-1.02-3.441,3.5,3.5,0,0,0-2.78-1.169m-1.555,3.824a3.867,3.867,0,0,1,.149-.64,1.774,1.774,0,0,1,.29-.555,1.417,1.417,0,0,1,.471-.383,1.461,1.461,0,0,1,.676-.145,1.384,1.384,0,0,1,.683.154,1.461,1.461,0,0,1,.455.393,1.63,1.63,0,0,1,.267.546,2.853,2.853,0,0,1,.1.631Z" transform="translate(-954.419 -524.752)" fill="#334148" fill-rule="evenodd"/><path d="M1040.763,507.568a1.369,1.369,0,0,0-.982.4,1.664,1.664,0,0,0,0,2.2,1.4,1.4,0,0,0,1.963,0,1.664,1.664,0,0,0,0-2.2,1.367,1.367,0,0,0-.981-.4" transform="translate(-995.712 -507.397)" fill="#334148" fill-rule="evenodd"/><rect width="2.34" height="8.98" transform="translate(43.888 4.268)" fill="#334148"/><path d="M1066.092,529.259q-.267-.06-.534-.1t-.534-.069q-.267-.025-.455-.025a7.911,7.911,0,0,0-1.908.213,13.257,13.257,0,0,0-1.484.453v8.5h2.34v-6.863a2.871,2.871,0,0,1,.464-.094,3.927,3.927,0,0,1,.526-.042,4.194,4.194,0,0,1,.911.094q.423.094.738.179l.392-2.1a2.336,2.336,0,0,0-.456-.145" transform="translate(-1013.874 -524.982)" fill="#334148" fill-rule="evenodd"/><path d="M1100.833,531.563a4.411,4.411,0,0,0-.832-1.485,3.739,3.739,0,0,0-1.28-.956,4.079,4.079,0,0,0-3.267,0,3.811,3.811,0,0,0-1.287.956,4.441,4.441,0,0,0-.848,1.485,5.786,5.786,0,0,0-.306,1.929,5.992,5.992,0,0,0,.3,1.938,4.508,4.508,0,0,0,.832,1.5,3.681,3.681,0,0,0,1.28.964,3.934,3.934,0,0,0,1.657.341,3.976,3.976,0,0,0,1.673-.341,3.683,3.683,0,0,0,1.279-.964,4.3,4.3,0,0,0,.817-1.5,6.314,6.314,0,0,0,.282-1.938,5.912,5.912,0,0,0-.3-1.929m-2.52,3.8a1.372,1.372,0,0,1-1.233.691,1.39,1.39,0,0,1-1.241-.691,3.455,3.455,0,0,1-.44-1.869,3.364,3.364,0,0,1,.44-1.852,1.4,1.4,0,0,1,1.241-.675,1.381,1.381,0,0,1,1.233.675,3.419,3.419,0,0,1,.432,1.852,3.512,3.512,0,0,1-.432,1.869" transform="translate(-1040.384 -524.751)" fill="#334148" fill-rule="evenodd"/><path d="M867.92,523.016q-.354-.623-.715-1.2t-.691-1.016a3.511,3.511,0,0,0,1.516-1.221,3.547,3.547,0,0,0,.526-2.023,3.4,3.4,0,0,0-1.3-2.945,6.319,6.319,0,0,0-3.753-.948q-.675,0-1.531.068a12.9,12.9,0,0,0-1.657.239v8.742a2.66,2.66,0,0,1,1.1,2.187,2.8,2.8,0,0,1-.1.732h1.445v-4.319h1.209q.315.409.63.913t.639,1.067q.323.563.63,1.161l.607,1.178h2.739q-.282-.649-.613-1.323t-.683-1.3m-2.49-4.191a3.882,3.882,0,0,1-1.979.376h-.691v-3.21l.4-.034c.141-.011.3-.017.479-.017a3.481,3.481,0,0,1,1.782.367,1.331,1.331,0,0,1,.6,1.238,1.391,1.391,0,0,1-.6,1.28" transform="translate(-846.616 -512.388)" fill="#334148" fill-rule="evenodd"/><path d="M844.413,565.61a1.8,1.8,0,1,0,1.646,1.789,1.724,1.724,0,0,0-1.646-1.789" transform="translate(-832.008 -554.882)" fill="#334148" fill-rule="evenodd"/></svg>